<?xml version="1.0" encoding="UTF-8" standalone="no"?><svg xmlns="http://www.w3.org/2000/svg" xmlns:xlink="http://www.w3.org/1999/xlink" contentScriptType="application/ecmascript" contentStyleType="text/css" height="67px" preserveAspectRatio="none" style="width:130px;height:67px;" version="1.1" viewBox="0 0 130 67" width="130px" zoomAndPan="magnify"><defs><linearGradient id="gg5msak5zve9o0" x1="0%" x2="100%" y1="0%" y2="100%"><stop offset="0%" stop-color="#FFFFF0"/><stop offset="100%" stop-color="#F0FFFF"/></linearGradient><filter height="300%" id="fg5msak5zve9o" width="300%" x="-1" y="-1"><feGaussianBlur result="blurOut" stdDeviation="2.0"/><feColorMatrix in="blurOut" result="blurOut2" type="matrix" values="0 0 0 0 0 0 0 0 0 0 0 0 0 0 0 0 0 0 .4 0"/><feOffset dx="4.0" dy="4.0" in="blurOut2" result="blurOut3"/><feBlend in="SourceGraphic" in2="blurOut3" mode="normal"/></filter></defs><g><rect fill="url(#gg5msak5zve9o0)" height="67" style="stroke: none; stroke-width: 1.0;" width="130" x="0" y="0"/><!--MD5=[b203f6b098b8dffe494a95d9c500f8e2]
class X--><rect fill="#FEFECE" filter="url(#fg5msak5zve9o)" height="48" id="X" style="stroke: #A80036; stroke-width: 1.5;" width="39" x="6" y="8"/><ellipse cx="21" cy="24" fill="#ADD1B2" rx="11" ry="11" style="stroke: #A80036; stroke-width: 1.0;"/><path d="M23.9688,29.6406 Q23.3906,29.9375 22.75,30.0781 Q22.1094,30.2344 21.4063,30.2344 Q18.9063,30.2344 17.5781,28.5938 Q16.2656,26.9375 16.2656,23.8125 Q16.2656,20.6875 17.5781,19.0313 Q18.9063,17.375 21.4063,17.375 Q22.1094,17.375 22.75,17.5313 Q23.4063,17.6875 23.9688,17.9844 L23.9688,20.7031 Q23.3438,20.125 22.75,19.8594 Q22.1563,19.5781 21.5313,19.5781 Q20.1875,19.5781 19.5,20.6563 Q18.8125,21.7188 18.8125,23.8125 Q18.8125,25.9063 19.5,26.9844 Q20.1875,28.0469 21.5313,28.0469 Q22.1563,28.0469 22.75,27.7813 Q23.3438,27.5 23.9688,26.9219 L23.9688,29.6406 Z "/><text fill="#000000" font-family="sans-serif" font-size="12" lengthAdjust="spacingAndGlyphs" textLength="7" x="35" y="28.1543">X</text><line style="stroke: #A80036; stroke-width: 1.5;" x1="7" x2="44" y1="40" y2="40"/><line style="stroke: #A80036; stroke-width: 1.5;" x1="7" x2="44" y1="48" y2="48"/><!--MD5=[1904c273551b1d3cd5b432df5b70c153]
class Y--><rect fill="#FEFECE" filter="url(#fg5msak5zve9o)" height="48" id="Y" style="stroke: #A80036; stroke-width: 1.5;" width="39" x="80" y="8"/><ellipse cx="95" cy="24" fill="#ADD1B2" rx="11" ry="11" style="stroke: #A80036; stroke-width: 1.0;"/><path d="M97.9688,29.6406 Q97.3906,29.9375 96.75,30.0781 Q96.1094,30.2344 95.4063,30.2344 Q92.9063,30.2344 91.5781,28.5938 Q90.2656,26.9375 90.2656,23.8125 Q90.2656,20.6875 91.5781,19.0313 Q92.9063,17.375 95.4063,17.375 Q96.1094,17.375 96.75,17.5313 Q97.4063,17.6875 97.9688,17.9844 L97.9688,20.7031 Q97.3438,20.125 96.75,19.8594 Q96.1563,19.5781 95.5313,19.5781 Q94.1875,19.5781 93.5,20.6563 Q92.8125,21.7188 92.8125,23.8125 Q92.8125,25.9063 93.5,26.9844 Q94.1875,28.0469 95.5313,28.0469 Q96.1563,28.0469 96.75,27.7813 Q97.3438,27.5 97.9688,26.9219 L97.9688,29.6406 Z "/><text fill="#000000" font-family="sans-serif" font-size="12" lengthAdjust="spacingAndGlyphs" textLength="7" x="109" y="28.1543">Y</text><line style="stroke: #A80036; stroke-width: 1.5;" x1="81" x2="118" y1="40" y2="40"/><line style="stroke: #A80036; stroke-width: 1.5;" x1="81" x2="118" y1="48" y2="48"/><!--MD5=[ddba56da0fa3f7e2613d730fc101d463]
link X to Y--><path d="M45.1563,46.0449 C55.129,50.5933 65.1018,51.2187 75.0745,47.921 " fill="none" id="X-&gt;Y" style="stroke: #A80036; stroke-width: 1.0;"/><polygon fill="#A80036" points="79.9702,45.987,70.13,45.5736,75.3199,47.8241,73.0694,53.0141,79.9702,45.987" style="stroke: #A80036; stroke-width: 1.0;"/><!--MD5=[7fd1df62b7fa4be20c639aca9d9cffde]
reverse link X to Y--><path d="M50.052,16.0374 C60.0247,12.7729 69.9975,13.4314 79.9702,18.013 " fill="none" id="X&lt;-Y" style="stroke: #A80036; stroke-width: 1.0;"/><polygon fill="#A80036" points="45.1563,17.9551,54.9952,18.3969,49.8118,16.1314,52.0773,10.948,45.1563,17.9551" style="stroke: #A80036; stroke-width: 1.0;"/><!--MD5=[634d507dab18286eff266cb8f3bd2540]
@startuml "rm-bidirectionality"

skinparam backgroundcolor Ivory/Azure

X -> Y
X <- Y

class X {
}

class Y {
}

@enduml

PlantUML version 1.2020.08(Sun Apr 26 14:08:22 UTC 2020)
(GPL source distribution)
Java Runtime: OpenJDK Runtime Environment
JVM: OpenJDK 64-Bit Server VM
Java Version: 1.8.0_252-heroku-b09
Operating System: Linux
Default Encoding: UTF-8
Language: en
Country: US
--></g></svg>